<svg xmlns="http://www.w3.org/2000/svg" id="Capa_1" data-name="Capa 1" viewBox="0 0 460.06 141.69"><defs><style>      .cls-1 {        fill: #088b38;      }      .cls-1, .cls-2, .cls-3, .cls-4, .cls-5, .cls-6, .cls-7, .cls-8 {        stroke-width: 0px;      }      .cls-2 {        fill: #683f17;      }      .cls-3 {        fill: #92c028;      }      .cls-4 {        fill: #fff;      }      .cls-5 {        fill: #40a939;      }      .cls-6 {        fill: #e00f1b;      }      .cls-7 {        fill: #e10f1a;      }      .cls-8 {        fill: #39b6ea;      }    </style></defs><path class="cls-4" d="m137.74,12.75h-7.63l-1.67,3.7h-1.03l6.05-13.16h.96l6.05,13.16h-1.04l-1.69-3.7Zm-.36-.81l-3.46-7.59-3.44,7.59h6.9Z"></path><polygon class="cls-4" points="153.88 3.29 154.84 3.29 154.84 15.59 162.42 15.59 162.42 16.45 153.88 16.45 153.88 3.29"></polygon><polygon class="cls-4" points="224.97 3.29 225.93 3.29 225.93 15.59 233.51 15.59 233.51 16.45 224.97 16.45 224.97 3.29"></polygon><path class="cls-4" d="m174.38,9.87c0-3.84,2.91-6.67,6.82-6.67,1.86,0,3.53.6,4.68,1.82l-.6.62c-1.13-1.11-2.5-1.56-4.04-1.56-3.36,0-5.9,2.48-5.9,5.79s2.54,5.79,5.9,5.79c1.54,0,2.91-.47,4.04-1.58l.6.62c-1.15,1.22-2.82,1.84-4.68,1.84-3.91,0-6.82-2.84-6.82-6.67"></path><path class="cls-4" d="m207.9,12.75h-7.63l-1.67,3.7h-1.03l6.05-13.16h.96l6.05,13.16h-1.04l-1.69-3.7Zm-.36-.81l-3.46-7.59-3.44,7.59h6.9Z"></path><path class="cls-4" d="m246.85,3.29h5.21c4.17,0,6.99,2.75,6.99,6.58s-2.82,6.58-6.99,6.58h-5.21V3.29Zm5.13,12.3c3.72,0,6.11-2.37,6.11-5.72s-2.39-5.72-6.11-5.72h-4.17v11.43h4.17Z"></path><path class="cls-4" d="m275.44,0h1.35l-2.95,2.22h-1.02l2.61-2.22Zm-2.03,3.29h.96v13.16h-.96V3.29Z"></path><path class="cls-4" d="m298.11,12.75h-7.63l-1.67,3.7h-1.03l6.05-13.16h.96l6.05,13.16h-1.04l-1.69-3.7Zm-.36-.81l-3.46-7.59-3.44,7.59h6.9Z"></path><path class="cls-4" d="m329.57,3.29h5.75c4.27,0,7.18,2.63,7.18,6.58s-2.91,6.58-7.18,6.58h-5.75V3.29Zm5.64,11.09c2.93,0,4.83-1.79,4.83-4.51s-1.9-4.51-4.83-4.51h-3.2v9.02h3.2Z"></path><polygon class="cls-4" points="366 14.4 366 16.45 356.13 16.45 356.13 3.29 365.73 3.29 365.73 5.34 358.57 5.34 358.57 8.76 364.92 8.76 364.92 10.77 358.57 10.77 358.57 14.4 366 14.4"></polygon><path class="cls-4" d="m189.76,90.68v1.91c0,15.85-14.04,22.55-25.95,22.55-3.3,0-34.89-.96-36.06-.96V34.62c5.85-.11,11.27-.22,16.06-.32,8.19-.32,16.59-.32,17.98-.32,13.3.53,25.64,5.85,25.64,22.76v2.02c0,6.28-3.09,10.95-7.34,14.36,6.91,4.36,9.68,9.89,9.68,17.55m-19.78-32.23c0-5.1-2.98-8.93-11.38-8.51l-10.53.21v16.7h15.32c4.26-.85,6.6-1.92,6.6-8.4m1.91,32.12c0-5.1-2.66-8.51-7.34-9.25h-16.49v17.23l.32.11,12.13.43c7.66.32,11.38-3.41,11.38-8.51"></path><path class="cls-4" d="m244.65,80.78v10.42c0,10.96-3.93,18.08-11.7,21.49-3.83,1.6-8.4,2.45-13.83,2.45-11.59,0-19.25-3.83-22.76-11.38-1.6-3.09-2.45-6.92-2.45-11.59v-12.44c0-11.06,4.78-18.19,14.36-21.27,3.3-.96,6.49-1.59,10.21-1.59h1.7c12.23,0,19.68,4.68,23.08,13.61.96,2.87,1.38,6.27,1.38,10.32m-21.27-8.51c-.96-.53-2.13-.64-3.4-.64h-1.38c-3.08,0-5.32,1.28-6.59,3.83-.32.95-.53,2.02-.53,3.61v14.25c0,4.89,2.55,7.34,7.66,7.34h.43c4.04,0,6.6-1.81,7.55-5.32,0-.96.1-2.02.1-3.62v-11.59c0-4.47-1.28-7.12-3.83-7.87"></path><polygon class="cls-4" points="349.96 114.39 327.62 114.39 307.51 57.7 326.55 57.7 338.68 95.78 350.49 57.7 369.42 57.7 349.96 114.39"></polygon><path class="cls-4" d="m457.41,56.75l1.7,15c-2.13-.11-6.06.21-7.45.53l-1.17.21c-2.55.53-6.06,1.7-10.74,3.4v38.5h-17.34v-57.12h14.36c.11.43.32.85.53,1.28.32.74.64,1.7.96,2.87,1.38-.53,2.02-.74,4.04-1.49,2.45-.85,5.1-1.6,8.4-2.34,2.23-.53,4.47-.74,6.7-.85"></path><rect class="cls-4" x="285.28" y="57.7" width="17.55" height="56.69"></rect><path class="cls-4" d="m267.52,90.04v2.13c0,3.83,1.27,6.17,3.72,7.02,3.08.85,8.4.74,9.15.74v14.68c-1.59.1-2.66.1-4.25.1-12.34,0-20.42-4.36-24.25-13.08-.96-2.45-1.6-4.89-1.81-7.34-.11-.96-.11-1.91-.11-2.76v-56.91l17.55-3.08v58.5Z"></path><path class="cls-4" d="m415.39,79.51v34.89h-14.47c-.1-.32-.21-.75-.32-1.06-.32-.74-.42-1.6-.53-2.45-5.1,2.66-10.21,4.15-15.64,4.15h-1.49c-5.21,0-9.36-2.02-12.44-6.06-2.02-3.09-3.08-6.6-3.08-10.53v-.43c0-6.91,2.44-11.38,7.23-13.61,2.02-1.38,7.02-2.02,15-2.02h8.19v-1.91c0-3.93-.53-6.17-1.7-6.81-1.28-.96-3.51-1.38-6.59-1.38h-16.38l1.6-14.47h17.55c11.17,0,18.08,2.76,20.74,8.29,1.59,3.3,2.34,7.76,2.34,13.4m-23.4,14.47c-3.4,0-5.42.32-6.17,1.06-.53.53-.85,1.49-.85,2.98,0,3.08,1.6,4.68,4.79,4.68,2.23,0,5-.96,8.08-2.34v-6.38h-5.85Z"></path><path class="cls-3" d="m75.15,116.06c.68-1.89,1.05-3.94,1.05-6.06v-6.74h-1.03s-.02,6.01-.02,12.81"></path><path class="cls-3" d="m62.12,93.33c-.74.07-2.16.43-2.16,2.1v3.84l5.38.23v-4.06s-.11-1.95-2.49-2.11c-.25,0-.49,0-.74,0"></path><path class="cls-3" d="m51.16,95.43v4.06l5.39-.22v-3.84c0-.71-.26-1.18-.61-1.5-1.56.27-3.12.61-4.68,1.03-.09.27-.1.47-.1.47"></path><path class="cls-3" d="m68.5,93.79v5.59h6.57v2.25h1.14v-5.44c-.26-.11-.5-.21-.76-.32-2.26-1-4.58-1.67-6.95-2.07"></path><path class="cls-3" d="m41.35,116.06c-.68-1.89-1.05-3.94-1.05-6.07,0,9.92,8.04,17.95,17.95,17.95-1.43,0-2.82-.17-4.15-.49-5.93-1.4-10.71-5.74-12.74-11.4"></path><path class="cls-3" d="m41.33,103.25h-1.03v6.74c0,2.13.37,4.17,1.05,6.06,0-6.8-.02-12.81-.02-12.81"></path><path class="cls-3" d="m41.44,99.38h6.57v-3.44c-2.61.87-5.19,1.91-7.71,3.07v2.62h1.14v-2.25Z"></path><path class="cls-3" d="m62.39,111.56s0-3.32-4.15-3.32-4.15,3.32-4.15,3.32v15.9c1.34.32,2.73.49,4.16.49s2.81-.17,4.14-.48v-15.9Z"></path><path class="cls-5" d="m62.12,93.33c.25,0,.49,0,.74,0-.1,0-.19-.01-.3-.01,0,0-.18,0-.44.02"></path><path class="cls-5" d="m53.94,93.31c-1.86,0-2.48,1.03-2.68,1.65,1.55-.42,3.11-.76,4.67-1.03-.77-.69-1.99-.62-1.99-.62"></path><path class="cls-5" d="m66.62,79.89h3.44v1.14h-1.56v12.76c2.36.4,4.69,1.08,6.95,2.07.26.11.5.21.76.32v-18.18c-3.32-1.04-6.52-2.16-9.59-3.28v5.16Z"></path><path class="cls-5" d="m55.38,72.43c0,1.46,1.19,2.65,2.65,2.65s2.6-1.14,2.64-2.57c-1.61-.61-3.17-1.2-4.69-1.77-.38.46-.6,1.04-.6,1.68"></path><path class="cls-5" d="m48,95.94v-14.91h-1.56v-1.14h3.44v-10.31c-2.9-.03-6.15.52-9.59,1.48v27.95c2.51-1.16,5.09-2.2,7.71-3.07"></path><path class="cls-8" d="m76.2,44.97v-5.64c0-9.91-8.04-17.95-17.95-17.95s-17.95,8.04-17.95,17.95v5.53c10.51-7.2,21.19-11.72,35.9.1"></path><path class="cls-8" d="m58.25,21.38h0c9.91,0,17.95,8.04,17.95,17.95v-.19c0-9.92-8.04-17.95-17.95-17.95s-17.95,8.04-17.95,17.95v.19c0-9.91,8.04-17.95,17.95-17.95"></path><polygon class="cls-1" points="52.04 66.25 53.93 66.25 53.93 61.01 52.04 61.98 52.04 66.25"></polygon><path class="cls-1" d="m73.18,52.01c-13.42-11.75-20.55-7.12-32.88,1.87v17.17c3.44-.96,6.69-1.5,9.59-1.48v-1.92h-.78v-1.37h1.85v-6.36h-.89v-1.25l7.44-6.48v-3.46h1.49v3.46l7.44,6.48v1.25h-.89v6.36h1.85v1.37h-.78v7.07c3.07,1.12,6.27,2.24,9.58,3.28v-23.66c-1.05-.71-2.06-1.49-3.03-2.33"></path><path class="cls-1" d="m59.77,61.01c0-1.24-1.52-1.1-1.52-1.1h0s-1.52-.14-1.52,1.1v5.24h3.04v-5.24Z"></path><polygon class="cls-1" points="64.41 62.25 62.5 61.01 62.5 66.25 64.41 66.25 64.41 62.25"></polygon><path class="cls-1" d="m58.03,69.78c-.82,0-1.56.38-2.05.97,1.52.57,3.08,1.16,4.69,1.77,0-.03,0-.06,0-.08,0-1.46-1.19-2.65-2.65-2.65"></path><path class="cls-8" d="m17.95,115.57c-.25,0-.51,0-.76-.02.25.01.51.02.76.02"></path><path class="cls-8" d="m18.83,115.54c-.29.02-.58.02-.87.02.29,0,.58,0,.87-.02"></path><path class="cls-8" d="m20.64,115.36c-.25.04-.51.07-.77.1.26-.03.51-.06.77-.1"></path><path class="cls-8" d="m19.71,115.48c-.23.02-.46.04-.69.05.23-.01.46-.03.69-.05"></path><path class="cls-8" d="m20.68,115.35c7.37-1.12,13.26-6.73,14.81-13.95-.04.02-.07.04-.11.06-1.54,7.16-7.41,12.76-14.71,13.89"></path><path class="cls-8" d="m35.39,101.47c-8.23,4.42-15.44,9.78-20.39,13.84.72.12,1.45.21,2.19.24.25.01.51.02.76.02.29,0,.59,0,.87-.02.07,0,.13,0,.2-.01.23-.02.46-.03.69-.05.05,0,.1-.01.16-.02.26-.03.51-.06.77-.1.02,0,.03,0,.04,0,7.3-1.13,13.17-6.73,14.71-13.89"></path><path class="cls-1" d="m35.79,56.98v15.52s.08-.03.12-.04v-15.54s-.08.05-.12.07"></path><path class="cls-1" d="m15.06,81.45l-.54-1.09c-.54-.08-1.62-.27-2.2-.62,0,0-.31-.2-.32-2.64-.08-.35.03-.72-.16-1.2-.18-.45-.62-1.22-.5-2.04l-5.47-11.18.72-.35,4.37,8.94,2.01,3.91s.37-.31.28.33l.28.84s.78,1.37,1.12,1.94l.42-.02s.53-1.49.82-1.53c.29-.05.99-.43.99-.43,0,0,.13-.48-.01-.63-.14-.14-.84-.53-1.08-2.01,0,0-1.04.33-1.81-.03l.45-.22s1.22-.35,1.25-.4c.03-.04,0-.81.05-.98.05-.17,1.65-.54,1.88-.53.23.01.63.81.63.81,0,0,1.34-.18,1.87.12l-1.62.53c.12.47.46,1.1.04,2.33,0,0-.15.42.22.6.37.18,1.45.52,1.45.52,0,0,1.34.09,1.57,1.23,0,0,.16.37.27.93,4.54-2.34,9.23-4.49,13.74-6.1v-15.51c-6.04,3.47-13.46,4.53-20.25,4.53-6.12,0-11.74-.86-15.41-1.59v31.78c3.82-2.57,9.15-6,15.1-9.39-.01-.28-.05-.57-.15-.86"></path><path class="cls-1" d="m.12,59.93s-.08-.02-.12-.02v31.88s.08-.05.12-.08v-31.78Z"></path><path class="cls-8" d="m35.51,48.28s.06-.04.09-.07c-1.55-8.34-8.86-14.65-17.64-14.65,8.74,0,16.07,6.38,17.55,14.72"></path><path class="cls-8" d="m.12,51.4v1.01c6.33,1.37,23.83,4.29,33.62-2.84l1.21-.88c.19-.14.37-.27.56-.41-1.49-8.33-8.81-14.72-17.55-14.72h0c-9.81,0-17.83,8.03-17.83,17.83"></path><path class="cls-8" d="m.12,51.4c0-9.81,8.02-17.83,17.83-17.83C8.04,33.57,0,41.6,0,51.52v.87s.08.02.12.03v-1.01Z"></path><path class="cls-3" d="m108.9,101.53c-.46,3.7-1.52,6.29-1.52,6.29,0,0-4.55-1.85-8.48-5.91-4.99-.22-10.93-1.2-18.4-3.98.17,9.77,8.13,17.64,17.94,17.64,8.71,0,15.96-6.2,17.6-14.43-2.27-.07-4.6.16-7.14.39"></path><path class="cls-5" d="m108.5,87.98s-.97-.16-2.46-.6c3.13,4.76,3.36,10.12,2.86,14.16,2.54-.23,4.87-.46,7.14-.39.23-1.14.35-2.32.35-3.52v-15.22c-2.6.37-5.17.59-7.7.67.14,2.89-.2,4.9-.2,4.9"></path><path class="cls-5" d="m94.76,95.78c-3.14,2.42-5.96,3.52-5.96,3.52,0,0-3.75-9.45.22-17.98-2.91-.58-5.75-1.28-8.53-2.06v18.34c0,.1.01.2.02.31,7.47,2.78,13.41,3.76,18.4,3.98-1.6-1.66-3.1-3.69-4.14-6.12"></path><path class="cls-8" d="m95.95,52.03c8.6-.71,16.17-4.89,19.14-7.18-2.65-6.61-9.09-11.28-16.65-11.28-8.9,0-16.28,6.48-17.7,14.97,4.33,2.79,9.43,3.96,15.2,3.49"></path><path class="cls-1" d="m80.49,56.74v22.53c2.77.77,5.62,1.47,8.53,2.06.74-1.58,1.74-3.13,3.07-4.58-1.81-3.5-2.69-8.05-1.64-13.94,15.12,2.31,17.94,13.61,18.25,20.26,2.53-.09,5.1-.3,7.7-.67v-29.6c-4.79,2.9-11.92,5.9-19.84,6.55-5.8.48-11.24-.41-16.06-2.61"></path><path class="cls-2" d="m98.9,101.9c3.93,4.06,8.48,5.91,8.48,5.91,0,0,1.07-2.59,1.52-6.29-2.96.27-6.2.54-10,.38"></path><path class="cls-2" d="m94.76,95.78c1.04,2.43,2.54,4.46,4.14,6.12,3.8.17,7.04-.11,10-.38.5-4.04.27-9.4-2.86-14.16-1.07-.32-2.41-.79-3.86-1.47-1.51,4.46-4.59,7.7-7.41,9.88"></path><path class="cls-6" d="m88.8,99.31s2.82-1.1,5.96-3.52c-1.55-3.61-2.09-8.09-.45-13.54-1.79-.26-3.55-.57-5.3-.91-3.96,8.52-.22,17.97-.22,17.97"></path><path class="cls-6" d="m94.84,80.68c-1.04-1.13-1.98-2.43-2.75-3.92-1.34,1.45-2.34,2.99-3.07,4.57,1.74.35,3.51.66,5.3.92.15-.52.33-1.04.52-1.57"></path><path class="cls-6" d="m102.18,85.9c-1.72-.8-3.59-1.88-5.34-3.33-.85-.1-1.69-.21-2.53-.33-1.64,5.44-1.1,9.93.45,13.54,2.83-2.17,5.9-5.42,7.41-9.88"></path><path class="cls-6" d="m94.84,80.68c-.19.53-.37,1.05-.52,1.57.84.12,1.68.23,2.52.32-.69-.57-1.36-1.2-2-1.89"></path><path class="cls-3" d="m102.88,83.05c-.03.2-.07.39-.1.59,1.34,1.17,2.41,2.43,3.26,3.74,1.49.45,2.46.6,2.46.6,0,0,.33-2.01.2-4.9-1.96.07-3.9.06-5.82-.02"></path><path class="cls-3" d="m101.16,70.91c1.91,4.68,2.28,8.71,1.72,12.14,1.92.08,3.86.09,5.82.02-.32-6.65-3.13-17.95-18.25-20.26-1.04,5.89-.17,10.44,1.64,13.95,2.1-2.28,5.02-4.31,9.07-5.85"></path><path class="cls-3" d="m102.77,83.64c-.15.79-.35,1.54-.6,2.27,1.45.67,2.79,1.14,3.86,1.47-.86-1.3-1.93-2.56-3.27-3.73"></path><path class="cls-3" d="m102.88,83.05c-.28-.01-.57-.02-.85-.04.26.21.51.42.75.63.04-.19.07-.39.1-.59"></path><path class="cls-3" d="m95.39,79.26c2.68,1.06,4.86,2.34,6.63,3.75.28.02.57.03.85.04.55-3.43.18-7.46-1.72-12.14-4.05,1.54-6.97,3.57-9.07,5.85.77,1.49,1.71,2.79,2.75,3.92.17-.47.35-.94.55-1.42"></path><path class="cls-3" d="m102.18,85.9c.24-.72.45-1.48.6-2.27-.24-.21-.49-.42-.75-.63-1.75-.09-3.48-.24-5.19-.43,1.75,1.45,3.62,2.53,5.34,3.33"></path><path class="cls-3" d="m96.84,82.57c1.71.2,3.44.34,5.19.43-1.77-1.41-3.95-2.69-6.63-3.75-.2.48-.38.95-.55,1.42.64.69,1.31,1.32,2,1.89"></path><path class="cls-8" d="m11.37,114.29c-.09-.04-.18-.07-.27-.11.09.04.18.07.27.11"></path><path class="cls-8" d="m35.39,101.47s.02-.06.02-.09l-28.45,7.11-3.56-.48c1.87,2.64,4.44,4.75,7.43,6.07.09.04.18.08.27.12.09.04.18.07.27.11,1.16.46,2.37.8,3.63,1.01,4.95-4.05,12.16-9.42,20.39-13.84"></path><path class="cls-8" d="m35.67,100.33h-.08c-.05.35-.11.7-.18,1.04,0,.03-.02.06-.02.09.04-.02.07-.04.11-.06.08-.35.12-.72.18-1.08"></path><path class="cls-8" d="m3.4,108c-.29-.41-.56-.83-.82-1.26-.02,0-.05.02-.07.02,1.92,3.23,4.83,5.79,8.31,7.3-2.99-1.31-5.56-3.43-7.43-6.07"></path><path class="cls-5" d="m22.07,80.46s.07.7-.35.9c-.43.19-.97.7-1.91,1.02,0,0-.15.51-.07.81.08.29.12.76.06,1,0,0,.45,1.48.02,3.51,0,0-.07.56-.19,1.24l4.67,9.53,4.12-.85,7.37.51c0-.13,0-.27,0-.4v-25.23c-4.51,1.61-9.2,3.76-13.74,6.1.1.5.15,1.16.02,1.86"></path><path class="cls-5" d="m19.08,91.03c-.45.98-.05,2.6-.05,2.6,0,0,.51,1.47-.42,4.54,0,0-.1.9-.02,1.48l4.89-1.01-4.12-8.43c-.08.31-.17.6-.27.81"></path><path class="cls-5" d="m1.01,103.27c-.58-1.75-.89-3.61-.89-5.54v-6.03s-.08.05-.12.08v5.83c0,3.35.92,6.48,2.51,9.16.02,0,.05-.02.07-.02-.64-1.09-1.17-2.25-1.57-3.47"></path><path class="cls-5" d="m17.26,99.12c-.11-1.19-.44-2.29-.61-2.73-.17-.43-.84-1.9-.75-2.52l-.45-.1s-.59-2.61-.76-3.16c-.17-.55-.77-4.05.38-6.91,0,0,.19-.64.16-1.39-5.95,3.39-11.28,6.82-15.1,9.39v6.03c0,1.93.32,3.8.89,5.54l16-3.3c.17-.2.28-.47.25-.85"></path><path class="cls-5" d="m35.79,97.73c0,.13,0,.27-.01.4-.02.75-.08,1.48-.18,2.2.03,0,.05,0,.08,0,.1-.65.18-1.31.22-1.98.01-.24.02-.49.02-.74v-25.16s-.08.03-.12.04v25.24Z"></path><path class="cls-5" d="m35.88,98.35c.01-.24.02-.49.02-.74,0,.25,0,.49-.02.74"></path><path class="cls-2" d="m20.21,76.44s-1.07-.33-1.45-.52c-.37-.18-.22-.6-.22-.6.42-1.23.08-1.87-.04-2.33l1.62-.53c-.54-.3-1.87-.12-1.87-.12,0,0-.4-.8-.63-.81-.23,0-1.83.35-1.88.53-.05.17-.02.94-.05.98s-1.24.4-1.24.4l-.45.22c.77.36,1.81.03,1.81.03.24,1.47.94,1.86,1.08,2.01.15.14.01.63.01.63,0,0-.71.38-.99.43-.29.05-.82,1.53-.82,1.53l-.42.02c-.34-.57-1.12-1.94-1.12-1.94l-.28-.83c.1-.65-.28-.33-.28-.33l-2.01-3.91-4.38-8.94-.72.35,5.47,11.18c-.12.82.32,1.59.5,2.04.19.48.08.85.16,1.2.01,2.44.32,2.64.32,2.64.58.35,1.66.55,2.2.62l.54,1.09c.1.28.14.58.15.86,2.21-1.26,4.5-2.51,6.83-3.71-.11-.56-.27-.93-.27-.93-.23-1.14-1.57-1.23-1.57-1.23"></path><path class="cls-2" d="m3.4,108l3.56.48,28.45-7.11c.07-.34.13-.69.18-1.04-12.55.04-26.05,4.03-33.01,6.42.25.43.53.85.82,1.26"></path><path class="cls-2" d="m28.41,97.62l-4.12.85-4.67-9.53c.12-.69.19-1.24.19-1.24.44-2.04-.02-3.51-.02-3.51.06-.24.02-.71-.06-1-.08-.29.07-.81.07-.81.95-.32,1.49-.82,1.91-1.02.43-.19.35-.9.35-.9.13-.7.07-1.36-.02-1.86-2.33,1.2-4.62,2.46-6.83,3.71.03.75-.16,1.39-.16,1.39-1.15,2.86-.54,6.36-.38,6.91.17.55.76,3.16.76,3.16l.45.1c-.08.62.58,2.09.75,2.52.17.43.5,1.54.61,2.73.04.38-.08.65-.25.85l-16,3.3c.4,1.22.93,2.38,1.58,3.47,6.95-2.39,20.45-6.38,33.01-6.42.11-.72.17-1.45.18-2.2l-7.37-.51Zm-9.82,2.03c-.07-.58.02-1.48.02-1.48.93-3.07.42-4.54.42-4.54,0,0-.4-1.62.05-2.6.1-.22.19-.5.27-.81l4.12,8.42-4.89,1.01Z"></path><path class="cls-4" d="m62.39,127.46h0c5.93-1.4,10.72-5.74,12.76-11.4h0c-2.03,5.66-6.82,10-12.76,11.4"></path><path class="cls-4" d="m41.35,116.06c2.03,5.66,6.82,9.99,12.74,11.4v-15.9s0-3.32,4.15-3.32,4.15,3.32,4.15,3.32v15.9c5.93-1.4,10.72-5.74,12.76-11.4,0-6.8.02-12.81.02-12.81h1.03v-1.63h-1.14v-2.25h-6.57v-5.59c-1.86-.32-3.74-.47-5.64-.47,2.37.15,2.48,2.11,2.48,2.11v4.06l-5.38-.23v-3.84c0-1.67,1.42-2.02,2.16-2.1-2.06.04-4.12.25-6.19.6.35.32.61.79.61,1.5v3.84l-5.38.23v-4.06s.01-.2.1-.47c-1.09.29-2.17.62-3.25.98v3.44h-6.57v2.25h-1.14v1.63h1.03s.02,6.01.02,12.81"></path><path class="cls-4" d="m70.06,81.03v-1.14h-3.44v-5.16c-2.04-.75-4.02-1.49-5.94-2.22-.04,1.42-1.21,2.57-2.64,2.57s-2.65-1.19-2.65-2.65c0-.64.23-1.22.6-1.68-.27-.1-.55-.2-.82-.3-1.57-.58-3.35-.85-5.28-.86v10.31h-3.44v1.14h1.56v14.91c1.08-.36,2.16-.69,3.25-.98.21-.62.83-1.65,2.68-1.65,0,0,1.22-.07,1.99.62,2.07-.35,4.13-.56,6.19-.6.26-.03.44-.02.44-.02.1,0,.2,0,.3.01,1.9,0,3.78.15,5.64.47v-12.76h1.56Z"></path><path class="cls-4" d="m55.99,70.74c.48-.59,1.22-.97,2.05-.97,1.46,0,2.65,1.19,2.65,2.65,0,.03,0,.06,0,.08,1.92.73,3.9,1.47,5.94,2.22v-7.07h.78v-1.37h-1.85v-6.36h.89v-1.25l-7.44-6.48v-3.46h-1.49v3.46l-7.44,6.48v1.25h.89v6.36h-1.85v1.37h.78v1.92c1.93.02,3.71.28,5.28.86.27.1.55.2.82.3m6.51-9.73l1.91,1.24v4h-1.91v-5.24Zm-5.76,0c0-1.24,1.52-1.1,1.52-1.1h0s1.52-.14,1.52,1.1v5.24h-3.04v-5.24Zm-2.8,5.24h-1.89v-4.27l1.89-.97v5.24Z"></path><polygon class="cls-7" points="288.23 54.8 299.31 54.8 309.81 41.32 290.8 41.32 288.23 54.8"></polygon><path class="cls-4" d="m289.13,129.64c0,.68-.52,1.22-1.24,1.22s-1.27-.54-1.27-1.22.54-1.25,1.27-1.25,1.24.56,1.24,1.25m-.15,12.05h-2.18l.35-8.94h1.47l.37,8.94Z"></path><path class="cls-4" d="m290.86,136.98l.44-.73c.93.97,2.65,1.7,4.46,1.7,2.71,0,3.9-1.18,3.9-2.65,0-4.05-8.44-1.62-8.44-6.6,0-1.91,1.47-3.59,4.79-3.59,1.49,0,3.03.46,4.07,1.22l-.37.79c-1.12-.77-2.49-1.14-3.71-1.14-2.63,0-3.8,1.22-3.8,2.7,0,4.05,8.44,1.66,8.44,6.57,0,1.91-1.53,3.57-4.87,3.57-2.01,0-3.94-.75-4.92-1.84"></path><rect class="cls-4" x="303.42" y="125.2" width=".99" height="13.52"></rect><polygon class="cls-4" points="317.86 137.83 317.86 138.72 308.53 138.72 308.53 125.2 317.57 125.2 317.57 126.09 309.52 126.09 309.52 131.42 316.72 131.42 316.72 132.29 309.52 132.29 309.52 137.83 317.86 137.83"></polygon><polygon class="cls-4" points="333.66 138.72 333.64 127.15 327.98 136.92 327.5 136.92 321.84 127.19 321.84 138.72 320.87 138.72 320.87 125.2 321.7 125.2 327.75 135.65 333.79 125.2 334.6 125.2 334.62 138.72 333.66 138.72"></polygon><path class="cls-4" d="m349.05,129.76c0,2.84-2.05,4.54-5.45,4.54h-3.86v4.42h-.99v-13.52h4.85c3.4,0,5.45,1.7,5.45,4.56m-1,0c0-2.34-1.54-3.67-4.44-3.67h-3.86v7.32h3.86c2.9,0,4.44-1.33,4.44-3.65"></path><path class="cls-4" d="m361.17,138.72l-3.23-4.52c-.43.06-.85.1-1.31.1h-3.86v4.42h-.99v-13.52h4.85c3.4,0,5.45,1.7,5.45,4.56,0,2.14-1.16,3.63-3.17,4.23l3.38,4.73h-1.12Zm-4.54-5.29c2.9,0,4.44-1.35,4.44-3.67s-1.54-3.67-4.44-3.67h-3.86v7.34h3.86Z"></path><polygon class="cls-4" points="374.44 137.83 374.44 138.72 365.11 138.72 365.11 125.2 374.15 125.2 374.15 126.09 366.1 126.09 366.1 131.42 373.3 131.42 373.3 132.29 366.1 132.29 366.1 137.83 374.44 137.83"></polygon><path class="cls-4" d="m379.31,136.92l1.12-1.31c.73,1.04,1.68,1.6,2.82,1.6,1.52,0,2.32-.93,2.32-2.74v-7.59h-4.88v-1.68h6.8v9.17c0,3.01-1.47,4.5-4.23,4.5-1.61,0-3.07-.7-3.94-1.95"></path><path class="cls-4" d="m390.72,132.89v-7.69h1.93v7.61c0,2.99,1.37,4.34,3.8,4.34s3.82-1.35,3.82-4.34v-7.61h1.87v7.69c0,3.92-2.14,5.99-5.72,5.99s-5.72-2.07-5.72-5.99"></path><polygon class="cls-4" points="417.15 125.2 417.15 138.72 415.57 138.72 407.46 128.64 407.46 138.72 405.53 138.72 405.53 125.2 407.11 125.2 415.22 135.28 415.22 125.2 417.15 125.2"></polygon><polygon class="cls-4" points="423.31 126.88 418.68 126.88 418.68 125.2 429.86 125.2 429.86 126.88 425.23 126.88 425.23 138.72 423.31 138.72 423.31 126.88"></polygon><path class="cls-4" d="m430.09,131.96c0-3.96,3.05-6.91,7.21-6.91s7.16,2.94,7.16,6.91-3.05,6.91-7.16,6.91-7.21-2.96-7.21-6.91m12.44,0c0-2.99-2.24-5.2-5.23-5.2s-5.27,2.2-5.27,5.2,2.24,5.2,5.27,5.2,5.23-2.2,5.23-5.2"></path><path class="cls-4" d="m445.6,137.18l.72-1.51c1,.91,2.72,1.57,4.46,1.57,2.34,0,3.34-.91,3.34-2.09,0-3.3-8.19-1.22-8.19-6.24,0-2.09,1.62-3.86,5.18-3.86,1.58,0,3.23.42,4.35,1.2l-.64,1.54c-1.18-.75-2.51-1.1-3.71-1.1-2.3,0-3.28.97-3.28,2.14,0,3.3,8.19,1.24,8.19,6.2,0,2.07-1.66,3.84-5.23,3.84-2.07,0-4.1-.69-5.18-1.7"></path><path class="cls-4" d="m457.55,137.6c0-.7.54-1.24,1.27-1.24s1.24.54,1.24,1.24-.52,1.24-1.24,1.24-1.27-.56-1.27-1.24m.17-12.4h2.18l-.37,9.25h-1.47l-.35-9.25Z"></path></svg>